<svg xmlns="http://www.w3.org/2000/svg" xmlns:xlink="http://www.w3.org/1999/xlink" width="960" viewBox="0 0 960 540" height="540" version="1.0"><defs><clipPath id="d"><path d="M 2 1.453125 L 358 1.453125 L 358 431.09375 L 2 431.09375 Z M 2 1.453125"/></clipPath><clipPath id="e"><path d="M 8.449219 285.609375 L 79.277344 408.277344 C 80.277344 410.007812 81.382812 411.667969 82.601562 413.253906 C 83.816406 414.839844 85.132812 416.339844 86.546875 417.753906 C 87.960938 419.167969 89.457031 420.484375 91.042969 421.699219 C 92.632812 422.917969 94.289062 424.027344 96.019531 425.027344 C 97.753906 426.027344 99.542969 426.910156 101.390625 427.675781 C 103.238281 428.441406 105.125 429.082031 107.058594 429.597656 C 108.988281 430.117188 110.945312 430.503906 112.929688 430.765625 C 114.910156 431.027344 116.902344 431.15625 118.902344 431.15625 L 258.09375 431.15625 C 260.09375 431.15625 262.085938 431.027344 264.066406 430.765625 C 266.050781 430.507812 268.007812 430.117188 269.9375 429.597656 C 271.871094 429.082031 273.757812 428.441406 275.605469 427.675781 C 277.453125 426.910156 279.242188 426.027344 280.976562 425.027344 C 282.707031 424.03125 284.367188 422.921875 285.953125 421.703125 C 287.539062 420.488281 289.039062 419.171875 290.453125 417.757812 C 291.867188 416.34375 293.179688 414.84375 294.398438 413.257812 C 295.617188 411.671875 296.722656 410.011719 297.722656 408.28125 C 298.722656 406.550781 299.605469 404.761719 300.371094 402.914062 C 301.136719 401.066406 301.777344 399.175781 302.292969 397.246094 C 302.8125 395.316406 303.199219 393.359375 303.460938 391.375 C 303.722656 389.394531 303.851562 387.402344 303.851562 385.40625 C 303.851562 383.40625 303.722656 381.414062 303.460938 379.433594 C 303.199219 377.449219 302.808594 375.492188 302.292969 373.5625 C 301.773438 371.632812 301.132812 369.742188 300.367188 367.894531 C 299.601562 366.050781 298.71875 364.261719 297.71875 362.527344 L 253.300781 285.609375 C 252.300781 283.878906 251.417969 282.089844 250.652344 280.246094 C 249.886719 278.398438 249.246094 276.507812 248.730469 274.578125 C 248.210938 272.648438 247.820312 270.691406 247.5625 268.707031 C 247.300781 266.726562 247.167969 264.734375 247.167969 262.738281 C 247.167969 260.738281 247.300781 258.746094 247.5625 256.765625 C 247.820312 254.785156 248.210938 252.828125 248.730469 250.898438 C 249.246094 248.964844 249.886719 247.078125 250.652344 245.230469 C 251.417969 243.382812 252.300781 241.59375 253.300781 239.863281 L 351.375 70.054688 C 352.375 68.324219 353.257812 66.535156 354.023438 64.6875 C 354.792969 62.839844 355.433594 60.953125 355.953125 59.019531 C 356.46875 57.089844 356.859375 55.132812 357.121094 53.152344 C 357.382812 51.167969 357.515625 49.175781 357.515625 47.179688 C 357.519531 45.179688 357.386719 43.1875 357.128906 41.207031 C 356.867188 39.222656 356.480469 37.265625 355.960938 35.335938 C 355.445312 33.402344 354.804688 31.511719 354.039062 29.664062 C 353.273438 27.816406 352.394531 26.027344 351.394531 24.296875 C 350.394531 22.566406 349.285156 20.90625 348.070312 19.320312 C 346.851562 17.730469 345.535156 16.230469 344.121094 14.816406 C 342.707031 13.402344 341.207031 12.085938 339.621094 10.871094 C 338.035156 9.652344 336.378906 8.542969 334.644531 7.542969 C 332.914062 6.542969 331.125 5.660156 329.277344 4.894531 C 327.429688 4.128906 325.539062 3.488281 323.609375 2.96875 C 321.675781 2.453125 319.71875 2.0625 317.738281 1.800781 C 315.753906 1.542969 313.765625 1.410156 311.765625 1.410156 L 172.585938 1.410156 C 170.585938 1.410156 168.597656 1.539062 166.613281 1.800781 C 164.632812 2.0625 162.675781 2.449219 160.746094 2.964844 C 158.8125 3.484375 156.925781 4.125 155.078125 4.890625 C 153.230469 5.652344 151.441406 6.535156 149.710938 7.535156 C 147.980469 8.535156 146.320312 9.640625 144.734375 10.859375 C 143.148438 12.074219 141.648438 13.390625 140.234375 14.804688 C 138.820312 16.21875 137.503906 17.714844 136.289062 19.300781 C 135.070312 20.886719 133.960938 22.546875 132.964844 24.277344 L 8.449219 239.863281 C 7.449219 241.59375 6.566406 243.382812 5.800781 245.230469 C 5.039062 247.078125 4.394531 248.964844 3.878906 250.898438 C 3.359375 252.828125 2.972656 254.785156 2.710938 256.765625 C 2.449219 258.746094 2.320312 260.738281 2.320312 262.738281 C 2.320312 264.734375 2.449219 266.726562 2.710938 268.707031 C 2.972656 270.691406 3.359375 272.648438 3.878906 274.578125 C 4.394531 276.507812 5.039062 278.398438 5.800781 280.246094 C 6.566406 282.089844 7.449219 283.878906 8.449219 285.609375 Z M 8.449219 285.609375"/></clipPath><clipPath id="c"><path d="M0 0H361V432H0z"/></clipPath><linearGradient x1="-1383.148" gradientTransform="matrix(-1.43928 0 0 1.43906 -1633.226 3745.436)" y1="-2452.39" x2="-1136.359" gradientUnits="userSpaceOnUse" y2="-2452.39" xlink:type="simple" xlink:actuate="onLoad" id="f" xlink:show="other"><stop stop-color="#2188E2" offset="0"/><stop stop-color="#2188E2" offset=".008"/><stop stop-color="#2189E2" offset=".016"/><stop stop-color="#218AE2" offset=".023"/><stop stop-color="#218AE2" offset=".031"/><stop stop-color="#218BE3" offset=".039"/><stop stop-color="#218CE3" offset=".047"/><stop stop-color="#218CE3" offset=".055"/><stop stop-color="#218DE3" offset=".063"/><stop stop-color="#218EE3" offset=".07"/><stop stop-color="#218EE3" offset=".078"/><stop stop-color="#218FE3" offset=".086"/><stop stop-color="#2190E3" offset=".094"/><stop stop-color="#2190E4" offset=".102"/><stop stop-color="#2191E4" offset=".109"/><stop stop-color="#2192E4" offset=".117"/><stop stop-color="#2192E4" offset=".125"/><stop stop-color="#2193E4" offset=".133"/><stop stop-color="#2194E4" offset=".141"/><stop stop-color="#2194E4" offset=".148"/><stop stop-color="#2195E4" offset=".156"/><stop stop-color="#2196E5" offset=".164"/><stop stop-color="#2197E5" offset=".172"/><stop stop-color="#2197E5" offset=".18"/><stop stop-color="#2198E5" offset=".188"/><stop stop-color="#2199E5" offset=".195"/><stop stop-color="#2199E5" offset=".203"/><stop stop-color="#219AE5" offset=".211"/><stop stop-color="#219BE5" offset=".219"/><stop stop-color="#219BE6" offset=".227"/><stop stop-color="#219CE6" offset=".234"/><stop stop-color="#219DE6" offset=".242"/><stop stop-color="#219DE6" offset=".25"/><stop stop-color="#219EE6" offset=".258"/><stop stop-color="#219FE6" offset=".266"/><stop stop-color="#219FE6" offset=".273"/><stop stop-color="#21A0E6" offset=".281"/><stop stop-color="#21A1E7" offset=".289"/><stop stop-color="#21A1E7" offset=".297"/><stop stop-color="#21A2E7" offset=".305"/><stop stop-color="#21A3E7" offset=".313"/><stop stop-color="#21A3E7" offset=".32"/><stop stop-color="#21A4E7" offset=".328"/><stop stop-color="#21A5E7" offset=".336"/><stop stop-color="#21A5E7" offset=".344"/><stop stop-color="#21A6E8" offset=".352"/><stop stop-color="#21A7E8" offset=".359"/><stop stop-color="#21A7E8" offset=".367"/><stop stop-color="#21A8E8" offset=".375"/><stop stop-color="#21A9E8" offset=".383"/><stop stop-color="#21AAE8" offset=".391"/><stop stop-color="#21AAE8" offset=".398"/><stop stop-color="#21ABE9" offset=".406"/><stop stop-color="#21ACE9" offset=".414"/><stop stop-color="#21ACE9" offset=".422"/><stop stop-color="#21ADE9" offset=".43"/><stop stop-color="#21AEE9" offset=".438"/><stop stop-color="#21AEE9" offset=".445"/><stop stop-color="#21AFE9" offset=".453"/><stop stop-color="#21B0E9" offset=".461"/><stop stop-color="#21B0EA" offset=".469"/><stop stop-color="#21B1EA" offset=".477"/><stop stop-color="#21B2EA" offset=".484"/><stop stop-color="#21B2EA" offset=".492"/><stop stop-color="#21B3EA" offset=".5"/><stop stop-color="#21B4EA" offset=".508"/><stop stop-color="#21B4EA" offset=".516"/><stop stop-color="#21B5EA" offset=".523"/><stop stop-color="#21B6EB" offset=".531"/><stop stop-color="#21B6EB" offset=".539"/><stop stop-color="#21B7EB" offset=".547"/><stop stop-color="#21B8EB" offset=".555"/><stop stop-color="#21B8EB" offset=".563"/><stop stop-color="#21B9EB" offset=".57"/><stop stop-color="#21BAEB" offset=".578"/><stop stop-color="#21BAEB" offset=".586"/><stop stop-color="#22BBEC" offset=".594"/><stop stop-color="#22BCEC" offset=".602"/><stop stop-color="#22BDEC" offset=".609"/><stop stop-color="#22BDEC" offset=".617"/><stop stop-color="#22BEEC" offset=".625"/><stop stop-color="#22BFEC" offset=".633"/><stop stop-color="#22BFEC" offset=".641"/><stop stop-color="#22C0EC" offset=".648"/><stop stop-color="#22C1ED" offset=".656"/><stop stop-color="#22C1ED" offset=".664"/><stop stop-color="#22C2ED" offset=".672"/><stop stop-color="#22C3ED" offset=".68"/><stop stop-color="#22C3ED" offset=".688"/><stop stop-color="#22C4ED" offset=".695"/><stop stop-color="#22C5ED" offset=".703"/><stop stop-color="#22C5EE" offset=".711"/><stop stop-color="#22C6EE" offset=".719"/><stop stop-color="#22C7EE" offset=".727"/><stop stop-color="#22C7EE" offset=".734"/><stop stop-color="#22C8EE" offset=".742"/><stop stop-color="#22C9EE" offset=".75"/><stop stop-color="#22C9EE" offset=".758"/><stop stop-color="#22CAEE" offset=".766"/><stop stop-color="#22CBEF" offset=".773"/><stop stop-color="#22CBEF" offset=".781"/><stop stop-color="#22CCEF" offset=".789"/><stop stop-color="#22CDEF" offset=".797"/><stop stop-color="#22CEEF" offset=".805"/><stop stop-color="#22CEEF" offset=".813"/><stop stop-color="#22CFEF" offset=".82"/><stop stop-color="#22D0EF" offset=".828"/><stop stop-color="#22D0F0" offset=".836"/><stop stop-color="#22D1F0" offset=".844"/><stop stop-color="#22D2F0" offset=".852"/><stop stop-color="#22D2F0" offset=".859"/><stop stop-color="#22D3F0" offset=".867"/><stop stop-color="#22D4F0" offset=".875"/><stop stop-color="#22D4F0" offset=".883"/><stop stop-color="#22D5F0" offset=".891"/><stop stop-color="#22D6F1" offset=".898"/><stop stop-color="#22D6F1" offset=".906"/><stop stop-color="#22D7F1" offset=".914"/><stop stop-color="#22D8F1" offset=".922"/><stop stop-color="#22D8F1" offset=".93"/><stop stop-color="#22D9F1" offset=".938"/><stop stop-color="#22DAF1" offset=".945"/><stop stop-color="#22DAF1" offset=".953"/><stop stop-color="#22DBF2" offset=".961"/><stop stop-color="#22DCF2" offset=".969"/><stop stop-color="#22DDF2" offset="1"/></linearGradient><filter x="0%" y="0%" width="100%" xlink:type="simple" xlink:actuate="onLoad" height="100%" id="a" xlink:show="other"><feColorMatrix values="0 0 0 0 1 0 0 0 0 1 0 0 0 0 1 0 0 0 1 0" color-interpolation-filters="sRGB"/></filter><mask id="b"><g filter="url(#a)"><path fill-opacity=".486" d="M-96 -54H1056V594H-96z"/></g></mask></defs><g mask="url(#b)"><g><g clip-path="url(#c)" transform="translate(300 54)"><g clip-path="url(#d)"><g clip-path="url(#e)"><path fill="url(#f)" d="M 357.519531 1.453125 L 357.519531 431.09375 L 2.320312 431.09375 L 2.320312 1.453125 Z M 357.519531 1.453125"/></g></g></g></g></g></svg>