<svg xmlns="http://www.w3.org/2000/svg" width="360" viewBox="0 0 360 360" height="360" version="1.0"><defs><clipPath id="a"><path d="M 0 1 L 360 1 L 360 358.730469 L 0 358.730469 Z M 0 1"/></clipPath></defs><g clip-path="url(#a)"><path fill="#000144" d="M 287.492188 94.195312 C 285.414062 93.363281 283.472656 92.394531 281.394531 91.5625 C 260.878906 82.699219 246.1875 69.957031 232.324219 49.042969 C 230.523438 46.410156 228.722656 43.363281 226.78125 40.316406 C 215.96875 22.863281 202.386719 0.980469 180.070312 1.535156 C 153.734375 1.953125 137.933594 28.820312 122.546875 54.71875 C 113.121094 70.648438 104.25 85.605469 93.4375 94.332031 C 84.980469 101.117188 73.617188 107.210938 61.695312 113.722656 C 33.003906 129.234375 0.570312 146.824219 0.570312 179.511719 C 0.570312 209.148438 33.003906 228.816406 61.558594 246.128906 C 75.695312 254.71875 89.140625 262.75 97.875 271.476562 C 106.46875 280.0625 113.535156 292.527344 121.160156 305.824219 C 135.851562 331.863281 151.101562 358.730469 179.792969 358.730469 C 179.792969 358.730469 179.929688 358.730469 179.929688 358.730469 C 273.632812 358.316406 359.152344 272.859375 359.292969 179.511719 C 359.429688 125.21875 329.214844 112.199219 287.492188 94.195312 Z M 179.929688 357.484375 C 179.929688 357.484375 179.792969 357.484375 179.792969 357.484375 C 151.929688 357.484375 136.824219 330.894531 122.269531 305.269531 C 114.785156 291.972656 107.574219 279.230469 98.84375 270.644531 C 89.972656 261.917969 76.527344 253.746094 62.25 245.160156 C 33.972656 227.847656 1.953125 208.457031 1.953125 179.511719 C 1.953125 147.65625 33.972656 130.34375 62.25 114.96875 C 74.308594 108.460938 85.675781 102.363281 94.128906 95.441406 C 105.21875 86.574219 114.089844 71.480469 123.65625 55.414062 C 138.761719 29.789062 154.566406 3.335938 179.929688 2.78125 C 180.207031 2.78125 180.347656 2.78125 180.625 2.78125 C 201.691406 2.78125 214.859375 23.972656 225.394531 41.007812 C 227.335938 44.054688 229.136719 47.101562 230.9375 49.734375 C 245.078125 70.925781 259.910156 83.804688 280.699219 92.808594 C 282.78125 93.640625 284.859375 94.609375 286.800781 95.441406 C 328.105469 113.167969 358.046875 126.050781 357.90625 179.511719 C 357.769531 272.308594 272.9375 357.070312 179.929688 357.484375 Z M 179.929688 357.484375"/></g><path fill="#000144" d="M 342.105469 178.542969 C 340.304688 137.683594 308.421875 121.203125 274.601562 103.75 L 270.445312 101.535156 C 258.382812 95.300781 246.1875 83.945312 234.40625 72.863281 C 216.664062 56.242188 198.226562 39.070312 178.960938 38.238281 C 157.335938 37.269531 137.101562 58.597656 119.082031 77.433594 C 110.488281 86.4375 102.308594 95.023438 94.546875 100.703125 C 87.199219 106.105469 78.746094 110.953125 69.875 115.9375 C 43.816406 130.757812 16.785156 146.132812 15.816406 178.402344 C 14.84375 206.796875 43.539062 225.769531 68.902344 242.527344 C 80.269531 250.007812 90.941406 257.210938 98.425781 264.6875 C 105.914062 272.308594 112.703125 282.417969 119.773438 293.082031 C 135.4375 316.765625 151.515625 341.140625 179.097656 341.417969 C 179.515625 341.417969 179.929688 341.417969 180.347656 341.417969 C 220.820312 341.417969 262.679688 322.167969 295.253906 288.371094 C 326.582031 256.101562 343.769531 215.9375 342.105469 178.542969 Z M 294.144531 287.542969 C 261.710938 321.058594 220.265625 340.171875 180.207031 340.171875 C 179.792969 340.171875 179.375 340.171875 178.960938 340.171875 C 152.070312 339.894531 136.269531 315.796875 120.882812 292.527344 C 113.8125 281.726562 107.023438 271.476562 99.398438 263.859375 C 91.914062 256.378906 81.101562 249.175781 69.734375 241.558594 C 44.785156 224.9375 16.371094 206.101562 17.339844 178.542969 C 18.449219 146.960938 45.0625 131.867188 70.707031 117.183594 C 79.714844 112.058594 88.171875 107.210938 95.515625 101.8125 C 103.417969 95.992188 111.59375 87.40625 120.191406 78.402344 C 137.515625 60.261719 157.199219 39.625 177.714844 39.625 C 178.128906 39.625 178.542969 39.625 178.960938 39.625 C 197.8125 40.453125 215.96875 57.492188 233.574219 73.972656 C 245.355469 85.050781 257.550781 96.410156 269.890625 102.78125 L 274.046875 104.996094 C 307.453125 122.308594 339.054688 138.515625 340.859375 178.542969 C 342.382812 215.660156 325.332031 255.410156 294.144531 287.542969 Z M 294.144531 287.542969"/><path fill="#000144" d="M 262.679688 110.398438 L 259.910156 108.734375 C 252.703125 104.582031 245.355469 99.457031 237.453125 94.195312 C 216.941406 80.203125 195.730469 65.800781 176.605469 65.109375 C 154.84375 64.414062 129.890625 81.867188 107.851562 97.242188 C 103.554688 100.148438 99.535156 103.058594 95.792969 105.550781 C 91.082031 108.734375 86.089844 111.785156 80.824219 114.96875 C 56.84375 129.511719 29.539062 145.992188 29.675781 175.769531 C 29.816406 201.949219 54.210938 220.921875 75.695312 237.679688 C 84.152344 244.328125 92.191406 250.5625 98.703125 256.933594 C 104.664062 263.027344 110.625 270.507812 116.722656 278.539062 C 132.527344 299.175781 150.546875 322.582031 176.1875 322.582031 C 176.328125 322.582031 176.605469 322.582031 176.742188 322.582031 C 214.859375 322.027344 257.277344 301.113281 287.355469 267.734375 C 313.136719 239.203125 326.304688 205.6875 323.671875 175.632812 C 320.480469 144.054688 289.847656 126.1875 262.679688 110.398438 Z M 286.105469 266.90625 C 256.304688 299.867188 214.304688 320.78125 176.464844 321.199219 C 176.328125 321.199219 176.1875 321.199219 175.910156 321.199219 C 150.960938 321.199219 133.21875 298.066406 117.554688 277.707031 C 111.320312 269.675781 105.496094 262.058594 99.398438 255.964844 C 92.882812 249.453125 84.84375 243.222656 76.386719 236.574219 C 54.070312 219.261719 31.0625 201.253906 30.925781 175.769531 C 30.785156 146.6875 57.675781 130.480469 81.378906 116.078125 C 86.644531 112.890625 91.773438 109.84375 96.488281 106.660156 C 100.367188 104.027344 104.386719 101.257812 108.546875 98.347656 C 128.921875 84.082031 154.148438 66.492188 175.21875 66.492188 C 175.632812 66.492188 176.050781 66.492188 176.464844 66.492188 C 195.179688 67.1875 216.246094 81.453125 236.621094 95.300781 C 244.523438 100.703125 252.007812 105.6875 259.214844 109.984375 L 261.988281 111.644531 C 288.878906 127.296875 319.234375 145.023438 322.007812 175.910156 C 324.640625 205.550781 311.609375 238.652344 286.105469 266.90625 Z M 286.105469 266.90625"/><path fill="#000144" d="M 248.820312 113.582031 C 216.800781 93.777344 191.15625 83.945312 172.722656 83.945312 C 149.160156 84.082031 88.863281 108.597656 59.0625 138.792969 C 47.695312 150.285156 41.875 161.503906 42.011719 172.03125 C 42.289062 197.929688 64.050781 217.042969 83.320312 233.804688 C 88.863281 238.652344 94.128906 243.222656 98.703125 247.929688 C 103.277344 252.5 107.574219 257.488281 112.289062 262.75 C 128.785156 281.308594 147.355469 302.363281 172.722656 302.636719 C 173 302.636719 173.277344 302.636719 173.691406 302.636719 C 206.683594 302.636719 243.96875 284.078125 270.996094 254.164062 C 294.5625 227.984375 306.480469 198.070312 303.433594 172.03125 C 300.382812 145.300781 270.582031 126.878906 248.820312 113.582031 Z M 269.890625 253.054688 C 243.136719 282.695312 206.265625 301.113281 173.691406 301.113281 C 173.414062 301.113281 173.140625 301.113281 172.722656 301.113281 C 148.050781 300.839844 130.445312 280.894531 113.398438 261.78125 C 108.683594 256.515625 104.25 251.53125 99.675781 246.960938 C 94.960938 242.25 89.695312 237.679688 84.152344 232.832031 C 65.160156 216.214844 43.675781 197.238281 43.398438 172.03125 C 43.261719 161.921875 48.945312 151.117188 60.03125 139.761719 C 89.003906 110.398438 149.851562 85.46875 172.722656 85.328125 C 172.863281 85.328125 172.863281 85.328125 173 85.328125 C 191.15625 85.328125 216.523438 95.300781 248.265625 114.832031 C 269.75 128.125 299.136719 146.269531 302.183594 172.171875 C 304.957031 197.652344 293.3125 227.292969 269.890625 253.054688 Z M 269.890625 253.054688"/><path fill="#000144" d="M 235.238281 118.292969 C 211.394531 105.136719 183.8125 95.992188 168.148438 95.992188 C 146.25 95.992188 94.128906 109.289062 68.210938 135.46875 C 58.507812 145.300781 53.65625 155.964844 53.65625 167.046875 C 53.933594 192.945312 74.308594 212.613281 92.191406 230.0625 C 94.683594 232.417969 97.042969 234.773438 99.398438 237.128906 C 101.617188 239.34375 103.695312 241.558594 105.914062 243.773438 C 123.101562 261.363281 142.503906 281.171875 168.011719 281.449219 C 168.289062 281.449219 168.425781 281.449219 168.703125 281.449219 C 198.644531 281.449219 230.800781 265.660156 254.640625 239.203125 C 275.019531 216.492188 285.136719 190.175781 282.503906 167.046875 C 280.839844 151.535156 263.511719 133.804688 235.238281 118.292969 Z M 253.671875 238.234375 C 230.386719 264.136719 197.949219 280.0625 168.84375 280.0625 C 168.703125 280.0625 168.425781 280.0625 168.289062 280.0625 C 143.335938 279.925781 124.070312 260.257812 107.160156 242.804688 C 104.941406 240.589844 102.722656 238.234375 100.644531 236.15625 C 98.289062 233.804688 95.933594 231.449219 93.4375 229.09375 C 75.695312 211.921875 55.597656 192.253906 55.320312 167.046875 C 55.179688 156.378906 59.894531 145.992188 69.457031 136.4375 C 94.824219 110.8125 147.355469 97.378906 168.425781 97.378906 C 199.753906 97.378906 277.511719 133.804688 281.394531 167.183594 C 283.886719 189.898438 273.769531 215.796875 253.671875 238.234375 Z M 253.671875 238.234375"/><path fill="#000144" d="M 163.714844 103.195312 C 163.574219 103.195312 163.296875 103.195312 163.160156 103.195312 C 144.445312 103.472656 98.84375 111.230469 76.804688 133.804688 C 68.765625 141.976562 64.882812 151.394531 65.023438 161.644531 C 65.300781 179.789062 78.46875 204.164062 99.398438 225.214844 C 120.742188 246.546875 144.585938 259.566406 163.160156 259.839844 C 163.4375 259.839844 163.851562 259.839844 164.269531 259.839844 C 189.773438 259.839844 216.800781 246.960938 236.621094 225.355469 C 254.503906 205.824219 263.511719 182.558594 261.433594 161.644531 C 257.691406 127.433594 191.433594 103.195312 163.714844 103.195312 Z M 235.375 224.386719 C 215.832031 245.714844 189.21875 258.457031 164.128906 258.457031 C 163.851562 258.457031 163.4375 258.457031 163.160156 258.457031 C 145.277344 258.179688 121.160156 245.160156 100.367188 224.246094 C 79.714844 203.472656 66.546875 179.511719 66.269531 161.644531 C 66.132812 151.808594 70.011719 142.808594 77.636719 134.773438 C 86.089844 126.050781 98.152344 119.539062 110.902344 114.832031 C 102.03125 118.15625 93.851562 122.726562 87.339844 128.957031 C 79.578125 136.574219 75.695312 145.578125 75.835938 155.964844 C 75.972656 174.246094 87.199219 196.269531 105.21875 213.582031 C 121.296875 229.09375 139.871094 237.820312 156.367188 237.820312 C 156.78125 237.820312 157.335938 237.820312 157.753906 237.820312 C 180.761719 237.128906 204.1875 226.046875 220.265625 208.179688 C 234.128906 192.945312 240.917969 174.386719 239.671875 155.964844 C 237.175781 120.925781 183.394531 107.90625 157.753906 107.074219 C 147.773438 106.9375 130.308594 108.320312 113.953125 113.859375 C 132.804688 107.351562 152.347656 104.71875 163.019531 104.582031 C 177.851562 104.441406 201.554688 111.089844 220.683594 120.785156 C 234.40625 127.710938 257.828125 142.253906 259.769531 161.78125 C 261.988281 182.28125 252.976562 205.132812 235.375 224.386719 Z M 88.308594 130.066406 C 105.914062 112.890625 138.207031 108.597656 154.980469 108.597656 C 155.949219 108.597656 156.78125 108.597656 157.753906 108.597656 C 169.535156 109.011719 189.355469 112.199219 206.683594 119.953125 C 220.40625 126.1875 237.039062 137.542969 238.425781 156.105469 C 239.671875 174.109375 233.019531 192.253906 219.433594 207.347656 C 203.496094 224.9375 180.484375 235.878906 157.890625 236.574219 C 141.398438 237.128906 122.683594 228.402344 106.328125 212.75 C 88.585938 195.714844 77.496094 173.96875 77.359375 156.105469 C 77.21875 146.132812 80.960938 137.40625 88.308594 130.066406 Z M 111.734375 114.691406 C 112.289062 114.554688 112.84375 114.277344 113.257812 114.136719 C 112.703125 114.277344 112.289062 114.554688 111.734375 114.691406 Z M 111.734375 114.691406"/><path fill="#000144" d="M 152.347656 216.351562 C 152.484375 216.351562 152.625 216.351562 152.761719 216.351562 C 170.78125 216.214844 188.523438 208.320312 201.277344 194.746094 C 213.058594 182.28125 219.15625 166.628906 218.324219 150.703125 C 217.632812 137.40625 209.039062 126.324219 193.515625 118.847656 C 181.871094 113.308594 166.625 109.84375 152.625 109.707031 C 133.910156 109.566406 109.378906 113.859375 96.347656 126.878906 C 89.972656 133.25 86.785156 141.285156 86.921875 150.703125 C 87.476562 183.386719 120.328125 216.351562 152.347656 216.351562 Z M 97.457031 127.988281 C 109.792969 115.523438 133.21875 111.089844 151.375 111.089844 C 151.792969 111.089844 152.207031 111.089844 152.625 111.089844 C 176.742188 111.367188 215.554688 122.449219 216.941406 150.703125 C 217.769531 166.214844 211.8125 181.449219 200.167969 193.636719 C 187.554688 206.933594 170.226562 214.691406 152.625 214.828125 C 152.484375 214.828125 152.347656 214.828125 152.207031 214.828125 C 121.019531 214.828125 88.726562 182.558594 88.308594 150.5625 C 88.308594 141.699219 91.359375 134.082031 97.457031 127.988281 Z M 97.457031 127.988281"/><path fill="#000144" d="M 148.1875 195.300781 C 148.328125 195.300781 148.464844 195.300781 148.605469 195.300781 C 161.078125 195.300781 173.832031 189.757812 183.257812 180.066406 C 192.683594 170.507812 197.8125 158.042969 197.535156 145.855469 C 197.257812 134.914062 191.15625 125.773438 179.652344 119.679688 C 170.921875 114.96875 159.140625 112.199219 148.1875 112.199219 C 148.1875 112.199219 148.1875 112.199219 148.050781 112.199219 C 134.328125 112.199219 116.167969 116.769531 106.191406 126.878906 C 101.0625 132.144531 98.425781 138.515625 98.566406 145.714844 C 99.257812 170.644531 123.65625 195.160156 148.1875 195.300781 Z M 107.296875 127.988281 C 117 118.152344 134.742188 113.722656 148.1875 113.722656 C 148.1875 113.722656 148.1875 113.722656 148.328125 113.722656 C 166.625 113.722656 195.730469 122.449219 196.285156 145.992188 C 196.5625 157.902344 191.433594 169.953125 182.425781 179.234375 C 173 188.789062 160.523438 194.191406 148.328125 194.054688 C 125.039062 193.777344 100.785156 169.539062 100.230469 145.992188 C 99.953125 139.066406 102.449219 133.113281 107.296875 127.988281 Z M 107.296875 127.988281"/><path fill="#000144" d="M 144.167969 175.21875 C 144.308594 175.21875 144.445312 175.21875 144.585938 175.21875 C 163.019531 175.078125 177.851562 160.121094 177.714844 142.113281 C 177.714844 134.082031 173.691406 127.433594 166.484375 122.863281 C 160.523438 119.125 152.625 116.90625 144.585938 116.90625 C 136.269531 116.769531 124.902344 119.125 117.832031 126.324219 C 113.535156 130.621094 111.320312 136.019531 111.457031 142.253906 C 111.59375 151.117188 115.0625 159.429688 121.296875 165.660156 C 127.257812 171.753906 135.4375 175.21875 144.167969 175.21875 Z M 118.664062 127.15625 C 125.316406 120.507812 135.992188 118.152344 143.890625 118.152344 C 144.03125 118.152344 144.308594 118.152344 144.445312 118.152344 C 166.207031 118.429688 176.1875 130.757812 176.1875 141.976562 C 176.328125 159.289062 162.050781 173.554688 144.445312 173.695312 C 135.992188 173.832031 128.089844 170.507812 122.128906 164.414062 C 116.167969 158.320312 112.84375 150.425781 112.703125 141.976562 C 112.566406 136.160156 114.644531 131.171875 118.664062 127.15625 Z M 118.664062 127.15625"/><path fill="#000144" d="M 141.8125 156.378906 C 141.8125 156.378906 141.953125 156.378906 141.953125 156.378906 C 146.527344 156.378906 150.960938 154.441406 154.148438 151.117188 C 157.199219 147.933594 158.863281 143.777344 158.863281 139.34375 C 158.722656 130.480469 152.070312 124.664062 141.953125 124.664062 C 131.832031 124.523438 125.179688 130.34375 125.039062 139.34375 C 125.039062 143.914062 126.703125 148.210938 129.890625 151.394531 C 133.082031 154.582031 137.238281 156.378906 141.8125 156.378906 Z M 141.8125 126.050781 C 141.953125 126.050781 141.953125 126.050781 142.089844 126.050781 C 151.515625 126.1875 157.476562 131.3125 157.613281 139.34375 C 157.613281 143.363281 156.089844 147.238281 153.316406 150.148438 C 150.40625 153.195312 146.25 154.855469 142.089844 154.855469 C 137.933594 154.855469 133.910156 153.332031 131 150.285156 C 128.089844 147.378906 126.566406 143.5 126.566406 139.34375 C 126.566406 131.3125 132.527344 126.050781 141.8125 126.050781 Z M 141.8125 126.050781"/></svg>